<svg width="195" height="27" viewBox="0 0 195 27" fill="none" xmlns="http://www.w3.org/2000/svg">
<g clip-path="url(#clip0_41_179)">
<path d="M-14.4231 8.09998C-11.9359 9.89998 -4.47435 18.9 0.500011 18.9C5.47437 18.9 10.4487 8.09998 15.4231 8.09998C20.3974 8.09998 25.3718 18.9 30.3462 18.9C35.3205 18.9 40.2949 8.09998 45.2692 8.09998C50.2436 8.09998 55.218 18.9 60.1923 18.9C65.1667 18.9 70.141 8.09998 75.1154 8.09998C80.0898 8.09998 85.0641 18.9 90.0385 18.9C95.0128 18.9 99.9872 8.09998 104.962 8.09998C109.936 8.09998 114.91 18.9 119.885 18.9C124.859 18.9 129.833 8.09998 134.808 8.09998C139.782 8.09998 144.756 18.9 149.731 18.9C154.705 18.9 159.679 8.09998 164.654 8.09998C169.628 8.09998 174.603 18.9 179.577 18.9C184.551 18.9 192.013 9.89998 194.5 8.09998" stroke="#5ED898" stroke-width="5" stroke-linecap="round" stroke-linejoin="round"/>
</g>
<defs>
<clipPath id="clip0_41_179">
<rect width="194" height="27" fill="white" transform="translate(0.5)"/>
</clipPath>
</defs>
</svg>
