<svg width="1440" height="15" viewBox="0 0 1440 15" fill="none" xmlns="http://www.w3.org/2000/svg">
<path d="M0 7.5C24 -2.5 48 -2.5 72 7.5C84 12.5 96 15 108 15C120 15 132 12.5 144 7.5C168 -2.5 192 -2.5 216 7.5C228 12.5 240 15 252 15C264 15 276 12.5 288 7.5C312 -2.5 336 -2.5 360 7.5C372 12.5 384 15 396 15C408 15 420 12.5 432 7.5C456 -2.5 480 -2.5 504 7.5C516 12.5 528 15 540 15C552 15 564 12.5 576 7.5C600 -2.5 624 -2.5 648 7.5C660 12.5 672 15 684 15C696 15 708 12.5 720 7.5C744 -2.5 768 -2.5 792 7.5C804 12.5 816 15 828 15C840 15 852 12.5 864 7.5C888 -2.5 912 -2.5 936 7.5C948 12.5 960 15 972 15C984 15 996 12.5 1008 7.5C1032 -2.5 1056 -2.5 1080 7.5C1092 12.5 1104 15 1116 15C1128 15 1140 12.5 1152 7.5C1176 -2.5 1200 -2.5 1224 7.5C1236 12.5 1248 15 1260 15C1272 15 1284 12.5 1296 7.5C1320 -2.5 1344 -2.5 1368 7.5C1380 12.5 1392 15 1404 15C1416 15 1428 12.5 1440 7.5V15H1404H1260H1116H972H828H684H540H396H252H108H0V7.5Z" fill="#DCFCE7"/>
</svg>
