<svg xmlns="http://www.w3.org/2000/svg" xmlns:xlink="http://www.w3.org/1999/xlink" version="1.1" viewBox="12 388 1535 28"><defs/><g><path fill="none" stroke="#02063B" paint-order="fill stroke markers" d=" M 20 403.68377639708615 L 21 402.8467200483592 L 22 401.9924130664177 L 23 401.13826065670906 L 24 400.30166487550645 L 25 399.499670089479 L 26 398.7486157226436 L 27 398.06380336545095 L 28 397.45918502815243 L 29 396.94707888981054 L 30 396.5379183341353 L 31 396.240039385159 L 32 396.059510873425 L 33 396.00001079279525 L 34 396.0627513669193 L 35 396.24645435202115 L 36 396.54737707917195 L 37 396.95938870547735 L 38 397.474095120677 L 39 398.0810099643748 L 40 398.7677682696831 L 41 399.52037838061716 L 42 400.32350701080645 L 43 401.1607916358837 L 44 402.01517385503354 L 45 402.86924692996485 L 46 403.7056104207299 L 47 404.5072246932239 L 48 405.2577580758146 L 49 405.94191959231273 L 50 406.5457704923563 L 51 407.0570082322497 L 52 407.46521712058063 L 53 407.76208052209137 L 54 407.9415502964738 L 55 407.9999700200292 L 56 407.93614947974027 L 57 407.7513889220512 L 58 407.4494525623238 L 59 407.0364918946746 L 60 406.52092036463785 L 61 405.9132419580087 L 62 405.22583719810837 L 63 404.4727109114505 L 64 403.66920690070117 L 65 402.8316953380355 L 66 401.97723924777716 L 67 401.1232468732287 L 68 400.28711701019034 L 69 399.48588453295713 L 70 398.7358733346638 L 71 398.0523637527885 L 72 397.4492812555169 L 73 396.93891273150683 L 74 396.53165616321894 L 75 396.2358087838383 L 76 396.0573980337676 L 77 396.00005876069577 L 78 396.06495916510477 L 79 396.2507769999613 L 80 396.5537265094893 L 81 396.967635558186 L 82 397.4840713786956 L 83 398.092512376619 L 84 398.7805624919974 L 85 399.53420375018055 L 86 400.33808185674104 L 87 401.1758190178703 L 88 402.0303476130192 L 89 402.8842579217083 L 90 403.7201528201045 L 91 404.5210022209599 L 92 405.27049003573836 L 93 405.95334659010484 L 94 406.555659720316 L 95 407.06515821239776 L 96 407.47146180946675 L 97 407.76629269367703 L 98 407.94364413416923 L 99 407.9999028650758 L 100 407.93392270031813 L 101 407.74704788540436 L 102 407.4430857104717 L 103 407.02822894254035 L 104 406.51092965730413 L 105 405.9017270409427 L 106 405.21303267023234 L 107 404.45887764554556 L 108 403.6546267285212 L 109 402.8166653084138 L 110 401.9620655747082 L 111 401.1082386972237 L 112 400.27258010000963 L 113 399.47211505603656 L 114 398.7231518231536 L 115 398.0409493881378 L 116 397.4394065880453 L 117 396.93077894254577 L 118 396.5254289663479 L 119 396.2316150487227 L 120 396.05532320138207 L 121 396.0001451025946 L 122 396.06720492220313 L 123 396.25513641837387 L 124 396.5601107726961 L 125 396.9759145965339 L 126 397.49407651936997 L 127 398.10403978009526 L 128 398.7933773049616 L 129 399.54804489030863 L 130 400.3526673318537 L 131 401.1908516710951 L 132 402.04552117690974 L 133 402.89926325797774 L 134 403.73468421784776 L 135 404.5347636250487 L 136 405.2832010784941 L 137 405.9647483033634 L 138 406.56551981151057 L 139 407.0732757971664 L 140 407.4776715043658 L 141 407.7704679856172 L 142 407.94569995792733 L 143 407.99979733636957 L 144 407.9316579691344 L 145 407.7426700921966 L 146 407.43668404611833 L 147 407.01993383121635 L 148 406.5009100992867 L 149 405.89018716948783 L 150 405.20020759267 L 151 404.4450286533255 L 152 403.640035973797 L 153 402.80163005562207 L 154 401.94689214425756 L 155 401.0932362246824 L 156 400.2580542379385 L 157 399.45836174678305 L 158 398.71045126947644 L 159 398.02956034450193 L 160 397.42956108889337 L 161 396.922677574949 L 162 396.5192367833497 L 163 396.227458206634 L 164 396.05328638953847 L 165 396.00026981793957 L 166 396.0694886238511 L 167 396.2595325793771 L 168 396.56652982796027 L 169 396.9842257675707 L 170 397.50411047870983 L 171 398.1155921010773 L 172 398.80621262661566 L 173 399.56190171247715 L 174 400.3672633428597 L 175 401.2058894994134 L 176 402.0606944496592 L 177 402.914262842803 L 178 403.74920452102083 L 179 404.54850881747626 L 180 405.29589112278535 L 181 405.9761246591662 L 182 406.57535070287764 L 183 407.0813609346378 L 184 407.4838461655622 L 185 407.77460637120777 L 186 407.94771775459975 L 187 407.99965343458535 L 188 407.92935530067365 L 189 407.73825557042704 L 190 407.430247610207 L 191 407.0116066137558 L 192 406.49086175466795 L 193 405.87862241744995 L 194 405.18736204744704 L 195 404.4311640233647 L 196 403.6254347298472 L 197 402.7865896758218 L 198 401.9317190534704 L 199 401.0782395515565 L 200 400.24353951688045 L 201 399.444624693159 L 202 398.69777175486155 L 203 398.0181966947222 L 204 397.4197448210302 L 205 396.91460868053053 L 206 396.5130796538279 L 207 396.2233382841585 L 208 396.05128761126366 L 209 396.00043290593294 L 210 396.0718102554428 L 211 396.26396545485443 L 212 396.5729836342273 L 213 396.9925690181403 L 214 397.51417319254085 L 215 398.1271692656797 L 216 398.8190683748683 L 217 399.5757741280616 L 218 400.38186979640693 L 219 401.2209324066472 L 220 402.0758673342234 L 221 402.9292565802509 L 222 403.7637136367558 L 223 404.562237710332 L 224 405.30856008745013 L 225 405.98747558475316 L 226 406.5851523315414 L 227 407.08941357310164 L 228 407.48998575356455 L 229 407.7787078239808 L 230 407.94969751128104 L 231 407.9994711606436 L 232 407.9270147096631 L 233 407.7338043483298 L 234 407.4237764439034 L 235 407.00324734341746 L 236 406.48078468771433 L 237 405.8670328587942 L 238 405.17449611672015 L 239 404.4172838443376 L 240 403.6108230900573 L 241 402.771544265207 L 242 401.91654639938963 L 243 401.0632487737606 L 244 400.22903602966767 L 245 399.4309039830231 L 246 398.6851133604037 L 247 398.00685851147745 L 248 397.40995784723793 L 249 396.906572310897 L 250 396.50695761716173 L 251 396.21925530764594 L 252 396.0493268793413 L 253 396.00063436553165 L 254 396.07416980212975 L 255 396.26843501645436 L 256 396.5794721502204 L 257 397.00094429488155 L 258 397.5242645965045 L 259 398.138771199858 L 260 398.8319444674977 L 261 399.58966204833786 L 262 400.39648659907647 L 263 401.2359802965862 L 264 402.09103973356065 L 265 402.94424437442547 L 266 403.7782114722563 L 267 404.5759502158097 L 268 405.32120789146114 L 269 405.99880100752677 L 270 406.5949246348133 L 271 407.0974336610554 L 272 407.49609022910573 L 273 407.78277231770454 L 274 407.95163921530934 L 275 407.99925051571 L 276 407.9246362110726 L 277 407.7293164543737 L 278 407.4172705885955 L 279 406.9948560736649 L 280 406.4706789628761 L 281 405.85541856764405 L 282 405.16160988277636 L 283 404.4033882050181 L 284 403.5962011478794 L 285 402.75649392000423 L 286 401.9013742790555 L 287 401.04826398717177 L 288 400.21454386906055 L 289 399.4171997041291 L 290 398.6724761670625 L 291 397.99554586728357 L 292 397.4002002301115 L 293 396.8985685174467 L 294 396.5008707125062 L 295 396.2152093032099 L 296 396.04740420631174 L 297 396.0008741954473 L 298 396.07656724882077 L 299 396.2729412355908 L 300 396.5859953344407 L 301 397.0093515442284 L 302 397.53438462605897 L 303 398.15039782940937 L 304 398.84484082215175 L 305 399.60356538448247 L 306 400.4111136573832 L 307 401.25103307298826 L 308 402.1062115506325 L 309 402.959226129469 L 310 403.79269793479807 L 311 404.5896462462078 L 312 405.3338344539265 L 313 406.0101008550527 L 314 406.6046675501924 L 315 407.1054211472047 L 316 407.50215955314314 L 317 407.7867998263835 L 318 407.953542854266 L 319 407.9989915011958 L 320 407.9222198201143 L 321 407.72479191726205 L 322 407.41073008589285 L 323 406.9864328581663 L 324 406.46054464478664 L 325 405.8437796182816 L 326 405.14870342803243 L 327 404.38947719427887 L 328 403.58156899683155 L 329 402.74143873647137 L 330 401.8862027895047 L 331 401.03328528762853 L 332 400.200063127747 L 333 399.4035119441259 L 334 398.65986025566207 L 335 397.98425883449323 L 336 397.39047203205797 L 337 396.8905973513697 L 338 396.4948189787914 L 339 396.21120029672767 L 340 396.0455196044718 L 341 396.00115239414595 L 342 396.0790025801826 L 343 396.27748408344314 L 344 396.59255314516787 L 345 397.01779071241043 L 346 397.5445332164793 L 347 398.1620490799731 L 348 398.8577573563489 L 349 399.6174840475735 L 350 400.4257508777764 L 351 401.26609063957983 L 352 402.12138268840397 L 353 402.97420174956204 L 354 403.8071729317296 L 355 404.6033257139303 L 356 405.34643969409007 L 357 406.0213750550603 L 358 406.61438101536567 L 359 407.11337598046384 L 360 407.50819368685904 L 361 407.7907903242589 L 362 407.9554084159758 L 363 407.99869411875756 L 364 407.9197655522429 L 365 407.7202307659326 L 366 407.4041549776268 L 367 406.9779777507944 L 368 406.45038179826236 L 369 405.83211608514625 L 370 405.1357768350347 L 371 404.375550901091 L 372 403.5669267304969 L 373 402.7263788108972 L 374 401.87103202777007 L 375 401.0183127709306 L 376 400.18559389834195 L 377 399.38984079055666 L 378 398.6472657068903 L 379 397.97299748529514 L 380 397.38077331529627 L 381 396.8826588636476 L 382 396.48880245472265 L 383 396.20722831383966 L 384 396.04367308587496 L 385 396.0014689598483 L 386 396.08147578063944 L 387 396.28206353095663 L 388 396.59914554045974 L 389 397.026261745453 L 390 397.5547103028578 L 391 398.17372487703085 L 392 398.87069398747855 L 393 399.631417948591 L 394 400.4403981666404 L 395 401.2811529000568 L 396 402.13655304984474 L 397 402.98917113892475 L 398 403.8216363704728 L 399 404.6169885314869 L 400 405.3590235313322 L 401 406.03262353544267 L 402 406.62406496820836 L 403 407.12129810995583 L 404 407.5141925916607 L 405 407.7947437858086 L 406 407.9572358885072 L 407 407.9983583702973 L 408 407.91727342315517 L 409 407.71563302955735 L 410 407.39754530584986 L 411 406.9694908056258 L 412 406.4401904883021 L 413 405.8204280428348 L 414 405.122830186458 L 415 404.36160941452334 L 416 403.5522744425235 L 417 402.711314239601 L 418 401.8558620908796 L 419 401.00334653283824 L 420 400.1711362733867 L 421 399.37618633085845 L 422 398.6346926012986 L 423 397.96176189171393 L 424 397.3711041418567 L 425 396.87475310505266 L 426 396.48282117877994 L 427 396.2032933799496 L 428 396.041864662331 L 429 396.0018238905297 L 430 396.0839868343734 L 431 396.28667954884236 L 432 396.60577247815326 L 433 397.03476458917766 L 434 397.56491582010466 L 435 398.1854251459075 L 436 398.88365063280145 L 437 399.6453669984174 L 438 400.45505543029515 L 439 401.296219758085 L 440 402.1517225379291 L 441 403.00413420181684 L 442 403.8360881585234 L 443 404.6306346114941 L 444 405.37158588517 L 445 406.04384622425766 L 446 406.63371934678446 L 447 407.1291874850129 L 448 407.52015622918077 L 449 407.7986601857472 L 450 407.95902526017215 L 451 407.9979842579623 L 452 407.91474344879003 L 453 407.71099873754196 L 454 407.3909011128358 L 455 406.9609720769406 L 456 406.42997078008665 L 457 405.8087155661009 L 458 405.1098635651056 L 459 404.3476528237418 L 460 403.5376122266235 L 461 402.69624511893164 L 462 401.8406930758562 L 463 400.98838666907136 L 464 400.1566903453482 L 465 399.3625486523615 L 466 398.622141019301 L 467 397.9505521256094 L 468 397.36146457358063 L 469 396.8668801261481 L 470 396.47687518921794 L 471 396.19939552022436 L 472 396.04009434540615 L 473 396.0022171839201 L 474 396.0865357253244 L 475 396.2913321075775 L 476 396.61243391586424 L 477 397.0432991892025 L 478 397.5751497029481 L 479 398.1971498117713 L 480 398.89662720945046 L 481 399.6593311078384 L 482 400.46972257499675 L 483 401.31129111730087 L 484 402.16689105563734 L 485 403.01909084253873 L 486 403.8505282034517 L 487 404.64426386667515 L 488 405.38412667525813 L 489 406.0550430497281 L 490 406.64334408934735 L 491 407.1370440551767 L 492 407.52608456127746 L 493 407.8025394990267 L 494 407.96077651952635 L 495 407.9975717841453 L 496 407.9121756453286 L 497 407.70632791952625 L 498 407.3842224410791 L 499 406.9524216192223 L 500 406.41972273897846 L 501 405.79697872985435 L 502 405.09687705390866 L 503 404.3336812180089 L 504 403.5229401765722 L 505 402.6811715452673 L 506 401.82552507971667 L 507 400.97343327530916 L 508 400.1422562066188 L 509 399.3489278422887 L 510 398.60961104117416 L 511 397.93936825867615 L 512 397.3518546721203 L 513 396.8590399772872 L 514 396.47096452406555 L 515 396.1955347595935 L 516 396.03836214642286 L 517 396.0026488375041 L 518 396.0891224371905 L 519 396.29602117740546 L 520 396.619129810988 L 521 397.05186549094265 L 522 397.585411885935 L 523 398.20889879963426 L 524 398.9096236344309 L 525 399.6733101875434 L 526 400.48439950693796 L 527 401.3263668813122 L 528 402.1820585059556 L 529 403.0340409654317 L 530 403.864956412903 L 531 404.65787620986106 L 532 405.3966458213891 L 533 406.06621394024194 L 534 406.65293913433965 L 535 407.1448677701988 L 536 407.5319775500347 L 537 407.80638170083586 L 538 407.96248965536915 L 539 407.99712095148436 L 540 407.9095700291938 L 541 407.7016206053834 L 542 407.3775093332946 L 543 406.9438394871574 L 544 406.40944643052137 L 545 405.78521760916067 L 546 405.0838707359252 L 547 404.3196946866834 L 548 403.5082583862083 L 549 402.66609361501423 L 550 401.8103581994715 L 551 400.9584864471896 L 552 400.12783394951526 L 553 399.335323987755 L 554 398.5971027470564 L 555 397.92821036244317 L 556 397.34227449893785 L 557 396.8512327086135 L 558 396.4650892211259 L 559 396.19171112274944 L 560 396.03666807645976 L 561 396.00311884852107 L 562 396.0917469534278 L 563 396.3007467283364 L 564 396.6258601206994 L 565 397.06046343961015 L 566 397.5957023034312 L 567 398.2206720343533 L 568 398.92263982462106 L 569 399.68730414812603 L 570 400.4990861322493 L 571 401.3414469536984 L 572 402.1972247918769 L 573 403.04898447487886 L 574 403.8793726945985 L 575 404.6714715539909 L 576 405.4091432434938 L 577 406.0773588243533 L 578 406.6625044203941 L 579 407.15265858004074 L 580 407.53783515776263 L 581 407.81018676660113 L 582 407.9641646567438 L 583 407.996631762863 L 584 407.9069266170505 L 585 407.6968768252203 L 586 407.37076183241766 L 587 406.93522573563473 L 588 406.3991419204398 L 589 405.773432279241 L 590 405.07084469434017 L 591 404.3056933192192 L 592 403.4935669494325 L 593 402.65101142460696 L 594 401.79519253212385 L 595 400.94354628030845 L 596 400.11342366627855 L 597 399.3217371757669 L 598 398.5846162169473 L 599 397.91707850827333 L 600 397.3327241153056 L 601 396.8434583700602 L 602 396.45924931797566 L 603 396.18792463414707 L 604 396.0350121463517 L 605 396.00362721396476 L 606 396.0944092572505 L 607 396.3055087301468 L 608 396.63262480195317 L 609 397.0690929802151 L 610 397.606020889622 L 611 398.23246944062987 L 612 398.9356756967731 L 613 399.7013129000845 L 614 400.513782356999 L 615 401.3565312380114 L 616 402.212389816402 L 617 403.0639212753056 L 618 403.89377695633556 L 619 404.68504981211265 L 620 405.4216188616421 L 621 406.0884776307825 L 622 406.6720398863338 L 623 407.1604164348747 L 624 407.5436573469975 L 625 407.81395467198627 L 626 407.9658015129375 L 627 407.9961042214098 L 628 407.9042454258052 L 629 407.6920966093767 L 630 407.36397998160334 L 631 406.9265804197457 L 632 406.38880927463845 L 633 405.76162281547084 L 634 405.0577990124647 L 635 404.2916772051654 L 636 403.47886596020714 L 637 402.6359250705069 L 638 401.7800281746693 L 639 400.92861287021907 L 640 400.0990254490727 L 641 399.3081674932222 L 642 398.57215153070746 L 643 397.9059727673629 L 644 397.32320358230515 L 645 396.8357170113499 L 646 396.45344485196534 L 647 396.18417531800384 L 648 396.0333943666896 L 649 396.00417393058393 L 650 396.0971093316314 L 651 396.3103071523803 L 652 396.6394238114842 L 653 397.0777540575651 L 654 397.61636757851255 L 655 398.24429094301087 L 656 398.9487311675129 L 657 399.71533635382286 L 658 400.5284880871941 L 659 401.37161963777623 L 660 402.2275534825393 L 661 403.07885127118016 L 662 403.9081691059883 L 663 404.6986108973834 L 664 405.4340725960434 L 665 406.0995702884167 L 666 406.6815454711723 L 667 407.16814128508355 L 668 407.54944408050227 L 669 407.8176853928927 L 670 407.9674002134813 L 671 407.99553833049885 L 672 407.90152647260606 L 673 407.68727998842564 L 674 407.35716382422663 L 675 406.91790359478324 L 676 406.3784485592024 L 677 405.7497892933806 L 678 405.0447337737353 L 679 404.27764643416515 L 680 403.4641555125559 L 681 402.6208346492025 L 682 401.7648652240949 L 683 400.9136863124314 L 684 400.0846393899851 L 685 399.29461502690873 L 686 398.5597087680575 L 687 397.8948932107414 L 688 397.3137129608273 L 689 396.82800868199416 L 690 396.4476758602188 L 691 396.18046319829926 L 692 396.03181474782025 L 693 396.00475899488185 L 694 396.0998471593013 L 695 396.3151419643475 L 696 396.646257105808 L 697 397.0864466162663 L 698 397.6267423039281 L 699 398.2561364658894 L 700 398.96180615334146 L 701 399.7293744196507 L 702 400.54320322878056 L 703 401.3867120564916 L 704 402.2427156933062 L 705 403.09377436701425 L 706 403.92254905150855 L 707 404.7121547230701 L 708 405.4465043670469 L 709 406.11063672631025 L 710 406.6910211141146 L 711 407.17583308126115 L 712 407.55519532126647 L 713 407.82137890545994 L 714 407.96896074815044 L 715 407.99493409374935 L 716 407.89876977484283 L 717 407.6824269931729 L 718 407.3503134038818 L 719 406.90919531624206 L 720 406.36805984039574 L 721 405.73793178865407 L 722 405.0316490617138 L 723 404.26360109595544 L 724 403.44943570056273 L 725 402.60574025720797 L 726 401.74970377737884 L 727 400.89876670241176 L 728 400.07026558102484 L 729 399.2810798635045 L 730 398.54728800857794 L 731 397.8838399092704 L 732 397.3042523115715 L 733 396.82033343129336 L 734 396.44194237963285 L 735 396.1767882987751 L 736 396.03027329984656 L 737 396.0053824031167 L 738 396.10262272275 L 739 396.32001313512615 L 740 396.65312464122053 L 741 397.0951706007235 L 742 397.6371449995149 L 743 398.2680059335045 L 744 398.97490057063453 L 745 399.74342700778453 L 746 400.5579276876444 L 747 401.4018083976305 L 748 402.2578763517293 L 749 403.108690467364 L 750 403.93691670092596 L 751 404.72568120255016 L 752 405.4589140951424 L 753 406.12167687368515 L 754 406.70046675455706 L 755 407.18349177421294 L 756 407.56091103250674 L 757 407.8250351860651 L 758 407.9704831069641 L 759 407.99429151502596 L 760 407.89597535014656 L 761 407.67753765465693 L 762 407.3434287643822 L 763 406.9004556398179 L 764 406.3576431846621 L 765 405.7260503771288 L 766 405.0185449600863 L 767 404.24954128036666 L 768 403.43470661837165 L 769 402.5906419910628 L 770 401.73454393148955 L 771 400.8838541355819 L 772 400.05590411412294 L 773 399.2675620895766 L 774 398.53488933170877 L 775 397.872812933644 L 776 397.29482169504536 L 777 396.81269130833635 L 778 396.4362444468773 L 779 396.173150642935 L 780 396.02877003262716 L 781 396.0060441513013 L 782 396.10543600422574 L 783 396.3249206335617 L 784 396.660026373799 L 785 397.1039259551404 L 786 397.64757559874 L 787 398.2798992699424 L 788 398.98801433564375 L 789 399.7574940283477 L 790 400.57266136961204 L 791 401.4169085646407 L 792 402.2730353608451 L 793 403.12359947682995 L 794 403.95127196234915 L 795 404.7391902493118 L 796 405.4713017009606 L 797 406.1326906599317 L 798 406.7098823320879 L 799 407.1911173149559 L 800 407.5665911776669 L 801 407.82865421132374 L 802 407.97196728018565 L 803 407.99361059843835 L 804 407.8931432163896 L 805 407.6726120041486 L 806 407.3365099497603 L 807 406.8916846214074 L 808 406.34719865862337 L 809 405.714145134795 L 810 405.0054215526633 L 811 404.2354670773213 L 812 403.4199683601857 L 813 402.5755399473316 L 814 401.71938578338535 L 815 400.86894870731845 L 816 400.04155508113166 L 817 399.2540617915812 L 818 398.52251281674836 L 819 397.86181235438767 L 820 397.28542117156474 L 821 396.80508236200006 L 822 396.43058209839467 L 823 396.16955025404445 L 824 396.0273049557765 L 825 396.0067442352032 L 826 396.1082869857355 L 827 396.329864428267 L 828 396.66696225940177 L 829 397.1127126235202 L 830 397.6580340348921 L 831 398.29181639913645 L 832 399.00114736449717 L 833 399.77157539137147 L 834 400.5874041804507 L 835 401.4320124609459 L 836 402.2881926237008 L 837 403.138501300058 L 838 403.9656147439655 L 839 404.75268177695494 L 840 405.48366710527387 L 841 406.1436780146086 L 842 406.7192677864876 L 843 407.19870965471927 L 844 407.57223572041835 L 845 407.8322359580895 L 846 407.97341325832275 L 847 407.99289134834146 L 848 407.89027339168564 L 849 407.6676500731511 L 850 407.32955700426675 L 851 406.88288231710766 L 852 406.33672632908014 L 853 405.7022161377953 L 854 404.99227892337836 L 855 404.22137857683435 L 856 403.40522102026694 L 857 402.5604342226028 L 858 401.7042294300137 L 859 400.85405051295265 L 860 400.0272185738233 L 861 399.24057905586244 L 862 398.5101585428538 L 863 397.8508382418581 L 864 397.27605080125267 L 865 396.79750664094934 L 866 396.4249553703997 L 867 396.1659871551305 L 868 396.0258780786649 L 869 396.00748265034497 L 870 396.11117564904515 L 871 396.33484448762295 L 872 396.67393225366874 L 873 397.12153054966564 L 874 397.66852024108204 L 875 398.30375724486805 L 876 399.0142995731993 L 877 399.78567100679516 L 878 400.6021560258695 L 879 401.4471199899453 L 880 402.30334804335445 L 881 403.1533958417404 L 882 403.9799449540427 L 883 404.76615569919124 L 884 405.49601022899634 L 885 406.15463886744385 L 886 406.7286230577293 L 887 407.20626874494434 L 888 407.5778446246601 L 889 407.83578040345446 L 890 407.97482103212735 L 891 407.9921337693355 L 892 407.8873658943891 L 893 407.6626518933995 L 894 407.32256997237084 L 895 406.8740487832157 L 896 406.32622626301037 L 897 405.69026346242447 L 898 404.9791171562884 L 899 404.20727586901205 L 900 403.3904646929353 L 901 402.54532491348857 L 902 401.6890749683104 L 903 400.8391596477692 L 904 400.0128946838904 L 905 399.22711396865236 L 906 398.49782658903945 L 907 397.83989066624287 L 908 397.2667106440396 L 909 396.78996419363625 L 910 396.41936429887943 L 911 396.16246136898184 L 912 396.02448941041825 L 913 396.0082593920038 L 914 396.1141019756796 L 915 396.3398607797784 L 916 396.6809363120218 L 917 397.1303796771798 L 918 397.67903415024267 L 919 398.31572173076665 L 920 399.02747087763237 L 921 399.79978078446703 L 922 400.61691681151956 L 923 401.4622310550155 L 924 402.3185015228764 L 925 403.1682830066154 L 926 403.9942625009284 L 927 404.7796119298453 L 928 405.5083309931847 L 929 406.1655731483347 L 930 406.7379480859794 L 931 407.2137945372854 L 932 407.58341785451904 L 933 407.8392875247493 L 934 407.9761905925957 L 935 407.9913378662657 L 936 407.88442074309575 L 937 407.6576174968609 L 938 407.3155488987597 L 939 406.86518407622856 L 940 406.31569852756985 L 941 405.67828718512857 L 942 404.96593633557217 L 943 404.1931590440512 L 944 403.3756994725684 L 945 402.530212116624 L 946 401.67392249519946 L 947 400.8242762070061 L 948 399.9985835029447 L 949 399.2136666160698 L 950 398.48551703417706 L 951 397.8289696975596 L 952 397.2574007596627 L 953 396.78245506830046 L 954 396.4138089195929 L 955 396.15897291814844 L 956 396.02313895991807 L 957 396.009074455212 L 958 396.1170659469228 L 959 396.3449132726505 L 960 396.6879743896648 L 961 397.1392599494659 L 962 397.68957569513 L 963 398.3277097803108 L 964 399.0406611935563 L 965 399.81390463414476 L 966 400.6316864429948 L 967 401.47734555951007 L 968 402.33365296534873 L 969 403.1831626994689 L 970 404.0085672930517 L 971 404.7930503828548 L 972 405.5206293190387 L 973 406.17648078734845 L 974 406.74724281159735 L 975 407.2212869836094 L 976 407.58895537435046 L 977 407.84275729954356 L 978 407.9775219309684 L 979 407.99050364422243 L 980 407.8814379566419 L 981 407.6525469157339 L 982 407.3084938283382 L 983 406.85628825284243 L 984 406.30514319009086 L 985 405.6662873825044 L 986 404.9527365455311 L 987 404.17902819223957 L 988 403.3609254536004 L 989 402.5150959286664 L 990 401.65877210759186 L 991 400.80940028585366 L 992 399.9842851225164 L 993 399.20023708412066 L 994 398.47322995699557 L 995 397.818075405656 L 996 397.24812120766535 L 997 396.77497931296824 L 998 396.40828926807075 L 999 396.1555218249414 L 1000 396.02182673580154 L 1001 396.00992783475647 L 1002 396.1200675438181 L 1003 396.3500019339249 L 1004 396.69504644158417 L 1005 397.1481713097283 L 1006 397.7001448083232 L 1007 398.33972131682793 L 1008 399.0538704366092 L 1009 399.828042465496 L 1010 400.6464648258328 L 1011 401.49246340676086 L 1012 402.3488022738673 L 1013 403.1980348251345 L 1014 404.0228592389227 L 1015 404.8064709722708 L 1016 405.53290512790153 L 1017 406.1873617147228 L 1018 406.7565071751367 L 1019 407.2287460359968 L 1020 407.59445714873783 L 1021 407.8461897056453 L 1022 407.97881503873066 L 1023 407.9896311085412 L 1024 407.87841755410454 L 1025 407.6474401824486 L 1026 407.3014048062286 L 1027 406.8473613699525 L 1028 406.29456031808274 L 1029 405.6542641312998 L 1030 404.9395178705871 L 1031 404.1648834039541 L 1032 403.346142730522 L 1033 402.49997644629474 L 1034 401.6436239023852 L 1035 400.7945319794545 L 1036 399.9699996340543 L 1037 399.1868254586965 L 1038 398.46096543607956 L 1039 397.8072078602088 L 1040 397.23887204739697 L 1041 396.76753697545234 L 1042 396.4028053796152 L 1043 396.15210811143305 L 1044 396.0205527464612 L 1045 396.0108195251794 L 1046 396.123106747168 L 1047 396.3551267310559 L 1048 396.70215242254903 L 1049 397.15711370097216 L 1050 397.710741422225 L 1051 398.3517562634957 L 1052 399.0670985223084 L 1053 399.84219418809914 L 1054 400.6612518655152 L 1055 401.5075845000783 L 1056 402.3639493515409 L 1057 403.21289928849393 L 1058 404.03713824713424 L 1059 404.81987361225896 L 1060 405.54515834126056 L 1061 406.19821586086647 L 1062 406.76574111734516 L 1063 407.2361716467413 L 1064 407.5999231424932 L 1065 407.8495847211019 L 1066 407.980069907612 L 1067 407.9887202648024 L 1068 407.8753595548015 L 1069 407.64229732966606 L 1070 407.2942818777706 L 1071 406.83840348465293 L 1072 406.2839499792306 L 1073 405.642217508412 L 1074 404.9262803952834 L 1075 404.1507247696608 L 1076 403.3313513978793 L 1077 402.4848537662093 L 1078 401.62847797646367 L 1079 400.77967138290217 L 1080 399.9557271289246 L 1081 399.1734318255743 L 1082 398.44872354986944 L 1083 397.79636713072387 L 1084 397.22965333801295 L 1085 396.7601281033521 L 1086 396.39735728929975 L 1087 396.1487317994565 L 1088 396.0193170000452 L 1089 396.01174952077764 L 1090 396.12618353753464 L 1091 396.3602876312667 L 1092 396.70929228711134 L 1093 397.1660870660045 L 1094 397.72136546906233 L 1095 398.36381454334173 L 1096 399.0803453660509 L 1097 399.85635971144364 L 1098 400.6760474674677 L 1099 401.52270874275166 L 1100 402.379094101493 L 1101 403.2277559944781 L 1102 404.0514042263615 L 1103 404.83325821709974 L 1104 405.5573888807476 L 1105 406.209043156359 L 1106 406.77494457916475 L 1107 407.2435637683509 L 1108 407.60535332065757 L 1109 407.8529423241998 L 1110 407.9812865295868 L 1111 407.98777111883163 L 1112 407.87226397829085 L 1113 407.6371183902789 L 1114 407.2871250885202 L 1115 406.82941465423573 L 1116 406.2733122413952 L 1117 405.6301475908878 L 1118 404.91302420428315 L 1119 404.1365523799149 L 1120 403.316551550274 L 1121 402.46972798513065 L 1122 401.6133344266963 L 1123 400.764818591241 L 1124 399.94146769840995 L 1125 399.16005627041613 L 1126 398.4365043766614 L 1127 397.7855532865358 L 1128 397.2204651384735 L 1129 396.75275274405266 L 1130 396.3919450319689 L 1131 396.1453929106059 L 1132 396.018119504457 L 1133 396.0127178156033 L 1134 396.12929789523974 L 1135 396.36548460154955 L 1136 396.71646598960643 L 1137 397.17509134743403 L 1138 397.7320168808868 L 1139 398.37589607924485 L 1140 399.0936108831131 L 1141 399.8705389449304 L 1142 400.6908515370618 L 1143 401.5378360380506 L 1144 402.39423642686205 L 1145 403.24260484806786 L 1146 404.0656570853634 L 1147 404.84662470118855 L 1148 405.56959666813924 L 1149 406.219843531952 L 1150 406.7841175017327 L 1151 407.25092235354754 L 1152 407.61074764850116 L 1153 407.8562624934646 L 1154 407.9824648968737 L 1155 407.98678367669936 L 1156 407.869130844371 L 1157 407.63190339741004 L 1158 407.27993448425053 L 1159 406.820394936191 L 1160 406.2626471726126 L 1161 405.6180544559235 L 1162 404.8997493823695 L 1163 404.12236632535894 L 1164 403.30174328236177 L 1165 402.454599199799 L 1166 401.59819334993705 L 1167 400.7499736994652 L 1168 399.9272214337103 L 1169 399.14669887876863 L 1170 398.42430799460567 L 1171 397.77476639680685 L 1172 397.2113075075439 L 1173 396.74541094472465 L 1174 396.3865686422379 L 1175 396.1420914662357 L 1176 396.0169602673555 L 1177 396.01372440346336 L 1178 396.1324498003646 L 1179 396.37071760866604 L 1180 396.7236734841535 L 1181 397.18412648767196 L 1182 397.7426955895747 L 1183 398.3880007939344 L 1184 399.1068949886525 L 1185 399.88473179787303 L 1186 400.70566397961477 L 1187 401.55296628922514 L 1188 402.40937623080185 L 1189 403.25744575429354 L 1190 404.0798967329822 L 1191 404.8599729790372 L 1192 405.58178162535785 L 1193 406.2306169185693 L 1194 406.79325982638164 L 1195 407.25824735526777 L 1196 407.6161060915231 L 1197 407.85954520766137 L 1198 407.9836050019362 L 1199 407.98575794472094 L 1200 407.86596017308074 L 1201 407.6266523844131 L 1202 407.2727101109506 L 1203 406.8113443882066 L 1204 406.25195484109395 L 1205 405.60593818086335 L 1206 404.88645601444466 L 1207 404.1081666967231 L 1208 403.2869266888521 L 1209 402.4394675069739 L 1210 401.5830548430244 L 1211 400.7351368025191 L 1212 399.9129884259406 L 1213 399.1333597360619 L 1214 398.412134481707 L 1215 397.76400653052696 L 1216 397.2021805037937 L 1217 396.7381027523245 L 1218 396.3812281544927 L 1219 396.1388274874611 L 1220 396.01583929615487 L 1221 396.01476927792 L 1222 396.1356392327506 L 1223 396.3759866191473 L 1224 396.730914724655 L 1225 397.19319242893175 L 1226 397.75340152682793 L 1227 398.40012860999207 L 1228 399.1201975977076 L 1229 399.89893817949803 L 1230 400.72048470039033 L 1231 401.568099399506 L 1232 402.42451341648206 L 1233 403.2722786182369 L 1234 404.09412307814506 L 1235 404.87330296527364 L 1236 405.593943674472 L 1237 406.24136324730733 L 1238 406.8023714946395 L 1239 407.26553872666267 L 1240 407.6214286154523 L 1241 407.8627904457949 L 1242 407.98470683748263 L 1243 407.9846939294568 L 1244 407.8627519846988 L 1245 407.62136538487226 L 1246 407.2654520148256 L 1247 406.8022630681672 L 1248 406.2412353152243 L 1249 405.59379884319975 L 1250 404.87314418552916 L 1251 404.09395358482413 L 1252 403.27210186450816 L 1253 402.42433300343396 L 1254 401.56791900277995 L 1255 400.72030799529523 L 1256 399.8987687661315 L 1257 399.1200389276093 L 1258 398.39998391582395 L 1259 397.7532737565136 L 1260 397.193084185597 L 1261 396.7308282135932 L 1262 396.3759236028897 L 1263 396.1356009951577 L 1264 396.01475659802446 L 1265 396.0158524322904 L 1266 396.13886617199887 L 1267 396.3812915992941 L 1268 396.7381896647982 L 1269 397.2022891132302 L 1270 397.76413462417423 L 1271 398.4122794498518 L 1272 399.13351862519863 L 1273 399.91315799894494 L 1274 400.73531360459884 L 1275 401.5832352721061 L 1276 402.4396478870895 L 1277 403.28710334503097 L 1278 404.10833602986435 L 1279 404.8866145746431 L 1280 405.60608273769606 L 1281 406.25208244943525 L 1282 406.8114524482306 L 1283 407.2727964210988 L 1284 407.62671518624745 L 1285 407.86599818710937 L 1286 407.98577039646585 L 1287 407.983591637712 L 1288 407.85950629974377 L 1289 407.6160424326018 L 1290 407.2581602422964 L 1291 406.79315103415456 L 1292 406.2304886635627 L 1293 405.5816365205724 L 1294 404.85981398076217 L 1295 404.07972708056565 L 1296 403.25726890414546 L 1297 402.40919578597504 L 1298 401.5527859260085 L 1299 400.70548737263454 L 1300 399.88456254522777 L 1301 399.1067365386075 L 1302 398.3878563746683 L 1303 397.74256814341044 L 1304 397.1840186111313 L 1305 396.72358737505687 L 1306 396.37065502135533 L 1307 396.13241200996106 L 1308 396.013712179889 L 1309 396.0169738596471 L 1310 396.1421305974709 L 1311 396.3866325151773 L 1312 396.7454982580544 L 1313 397.21141648238756 L 1314 397.7748948129678 L 1315 398.42445323579983 L 1316 399.1468579859276 L 1317 399.9273911652678 L 1318 400.75015059739883 L 1319 401.59837381022044 L 1320 402.4547795458284 L 1321 403.301919839861 L 1322 404.12253549723755 L 1323 404.89990772200775 L 1324 405.6181987373921 L 1325 406.262774456396 L 1326 406.8205026290757 L 1327 407.2800203921579 L 1328 407.631965770097 L 1329 407.869168411089 L 1330 407.9867956720836 L 1331 407.9824510765365 L 1332 407.8562231389743 L 1333 407.61068356164566 L 1334 407.250834839999 L 1335 406.78400834444665 L 1336 406.2197149548421 L 1337 405.56945129076854 L 1338 404.8464654853999 L 1339 404.06548727493634 L 1340 403.2424279026315 L 1341 402.3940559514106 L 1342 401.5376557094969 L 1343 400.6906750293259 L 1344 399.87036985408895 L 1345 399.0934526541348 L 1346 398.3757519358045 L 1347 397.7318897596878 L 1348 397.1749838383774 L 1349 396.7163802830257 L 1350 396.365422443586 L 1351 396.12926055226734 L 1352 396.0127060484283 L 1353 396.0181335528177 L 1354 396.1454324882883 L 1355 396.39200933263794 L 1356 396.75284045767995 L 1357 397.2205744780274 L 1358 397.7856820243891 L 1359 398.4366498899761 L 1360 399.1602155945798 L 1361 399.94163758743514 L 1362 400.76499558389713 L 1363 401.6135149170272 L 1364 402.46990829592033 L 1365 403.3167280079644 L 1366 404.1367213894489 L 1367 404.91318232234846 L 1368 405.6302915960695 L 1369 406.27343919980666 L 1370 406.82952197929234 L 1371 407.28721059363727 L 1372 407.63718033341956 L 1373 407.8723010974579 L 1374 407.98778265777855 L 1375 407.98127225322503 L 1376 407.85290252338854 L 1377 407.6052888062778 L 1378 407.243475854785 L 1379 406.77483505751786 L 1380 406.20891425796816 L 1381 405.55724323172154 L 1382 404.8330987848157 L 1383 404.0512342590099 L 1384 403.22757895488525 L 1385 402.3789135965713 L 1386 401.5225284500143 L 1387 400.67587106010507 L 1388 399.8561907834874 L 1389 399.0801873591513 L 1390 398.363670676649 L 1391 397.72123867364155 L 1392 397.1659799251195 L 1393 396.7092069835947 L 1394 396.3602259030479 L 1395 396.12614664223224 L 1396 396.0117382100773 L 1397 396.01933150438515 L 1398 396.148771823333 L 1399 396.3974220172871 L 1400 396.76021621671606 L 1401 397.2297630415777 L 1402 397.7964961894461 L 1403 398.4488693343741 L 1404 399.1735913657237 L 1405 399.9558971743308 L 1406 400.7798484691488 L 1407 401.62865849568766 L 1408 402.48503404060614 L 1409 403.33152775463225 L 1410 404.15089361576923 L 1411 404.9264382907646 L 1412 405.64236123638574 L 1413 406.28407661145803 L 1414 406.83851044119496 L 1415 407.2943669795504 L 1416 407.6423588428643 L 1417 407.87539622618027 L 1418 407.9887313472382 L 1419 407.98005517531703 L 1420 407.8495444742243 L 1421 407.5998582010018 L 1422 407.2360833337203 L 1423 406.76563123203795 L 1424 406.1980866420191 L 1425 405.5450124215106 L 1426 404.8197139644993 L 1427 404.0369681239452 L 1428 403.21272215587675 L 1429 402.36376881830324 L 1430 401.50740424431035 L 1431 400.661075559654 L 1432 399.84202542410856 L 1433 399.06694073849803 L 1434 398.3516126744707 L 1435 397.7106149533934 L 1436 397.15700692894404 L 1437 396.7020675226421 L 1438 396.35506543297663 L 1439 396.1230702997715 L 1440 396.0108086710259 L 1441 396.02056770668764 L 1442 396.15214858124756 L 1443 396.40287053450686 L 1444 396.7676254879893 L 1445 397.238982114271 L 1446 397.8073372389746 L 1447 398.46111149084163 L 1448 399.18698521381117 L 1449 399.97016983475413 L 1450 400.79470915815904 L 1451 401.6438044493478 L 1452 402.50015668314563 L 1453 403.3463189852095 L 1454 404.165052085557 L 1455 404.93967554247433 L 1456 405.65440758114636 L 1457 406.2946866233163 L 1458 406.847467957296 L 1459 407.30148950412695 L 1460 407.64750126531095 L 1461 407.87845377746055 L 1462 407.989641734395 L 1463 407.97879985059666 L 1464 407.8461490129587 L 1465 407.5943917805501 L 1466 407.2286573240854 L 1467 406.75639692687196 L 1468 406.1872321762454 L 1469 405.5327589383609 L 1470 404.8063111100565 L 1471 404.02268896098434 L 1472 403.197857600626 L 1473 402.3486217134684 L 1474 401.49228318911514 L 1475 400.64628862260076 L 1476 399.8278738665505 L 1477 399.05371287689724 L 1478 398.33957800638905 L 1479 397.7000186668897 L 1480 397.1480649072399 L 1481 396.69496194582985 L 1482 396.34994106637714 L 1483 396.12003154456056 L 1484 396.00991743721937 L 1485 396.0218421518188 L 1486 396.15556274043513 L 1487 396.40835484945 L 1488 396.77506822411215 L 1489 397.24823163714456 L 1490 397.81820510363787 L 1491 398.47337628108096 L 1492 399.2003970531789 L 1493 399.98445547742114 L 1494 400.8095775558829 L 1495 401.65895268113826 L 1496 402.5152761268188 L 1497 403.36110160509526 L 1498 404.1791967082582 L 1499 404.95289399281586 L 1500 405.6664305533064 L 1501 406.3052691675227 L 1502 406.8563944703056 L 1503 407.30857812181335 L 1504 407.6526075678697 L 1505 407.8814737317433 L 1506 407.9905138134263 L 1507 407.9775062870925 L 1508 407.84271616130815 L 1509 407.5888895798845 L 1510 407.2211978733751 L 1511 406.74713220108015 L 1512 406.1763509300695 L 1513 405.52048286064246 L 1514 404.79289030720844 L 1515 404.008396861453 L 1516 403.1829853842024 L 1517 402.33347237894344 L 1518 401.4771653811393 L 1519 400.6315103435188 L 1520 399.8137362013225 L 1521 399.04050385895044 L 1522 398.3275667493746 L 1523 397.6894498819013 L 1524 397.1391539171978 L 1525 396.6878902986036 L 1526 396.34485283602356 L 1527 396.1170303960346 L 1528 396.0090645143577 L 1529 396.02315483162755 L 1530 396.1590142790597 L 1531 396.41387492704035 L 1532 396.7825443774827 L 1533 397.2575115510409 L 1534 397.8290997139281 L 1535 398.48566362664997 L 1536 399.21382679804844 L 1537 399.9987540109649 L 1538 400.82445356722627 L 1539 401.6741030941748" stroke-linecap="round" stroke-linejoin="round" stroke-miterlimit="10" stroke-width="16"/></g></svg>